# Blender v2.78 (sub 0) OBJ File: 'minerais.blend'
# www.blender.org
mtllib minerais.mtl
o Cube_Cube.001
v 0.018713 0.011299 -0.034918
v 0.029657 0.046166 -0.007090
v -0.027866 0.037999 -0.140920
v -0.016922 0.072867 -0.113093
v 0.128286 0.022176 -0.082959
v 0.139230 0.057044 -0.055131
v 0.081707 0.048877 -0.188961
v 0.092651 0.083745 -0.161134
v 0.016373 0.049484 -0.188945
v 0.029455 0.091165 -0.155681
v 0.082248 0.011722 -0.039028
v 0.095330 0.053403 -0.005763
v -0.031454 0.021981 -0.076135
v -0.018372 0.063661 -0.042870
v 0.128532 0.037863 -0.146279
v 0.141613 0.079543 -0.113014
v 0.073554 0.104463 -0.052582
v 0.042752 0.006325 -0.130904
v -0.056995 0.002269 0.083661
v -0.050482 0.082924 0.120795
v -0.054586 0.066682 0.016019
v -0.048073 0.147337 0.053154
v 0.027549 -0.007028 0.080448
v 0.034062 0.073627 0.117582
v 0.029959 0.057384 0.012806
v 0.036471 0.138039 0.049941
v -0.011768 0.076619 -0.000905
v -0.003983 0.173033 0.043485
v -0.015175 -0.014478 0.094759
v -0.007390 0.081936 0.139149
v -0.076528 0.036756 0.050628
v -0.068743 0.133170 0.095018
v 0.046913 0.023181 0.045937
v 0.054698 0.119595 0.090327
v 0.000374 0.201868 0.127443
v -0.017957 -0.025139 0.022926
v -0.034264 -0.002224 -0.037046
v -0.119119 0.273010 -0.067585
v -0.032925 -0.005992 -0.061827
v -0.116119 0.264571 -0.123089
v -0.009928 0.003912 -0.036664
v -0.064610 0.286754 -0.066727
v -0.008588 0.000144 -0.061444
v -0.061609 0.278315 -0.122232
v -0.020453 -0.003777 -0.067247
v -0.089902 0.276416 -0.136369
v -0.022348 0.001552 -0.032201
v -0.094146 0.288351 -0.057871
v -0.039564 -0.005613 -0.049530
v -0.132708 0.272304 -0.096687
v -0.004031 0.003346 -0.048972
v -0.053119 0.292370 -0.095435
v -0.107025 0.342432 -0.105961
v -0.021426 -0.001040 -0.049245
v -0.042496 0.012671 0.042496
v -0.042496 0.449241 0.042496
v -0.042496 0.012671 -0.042496
v -0.042496 0.449241 -0.042496
v 0.042496 0.012671 0.042496
v 0.042496 0.449241 0.042496
v 0.042496 0.012671 -0.042496
v 0.042496 0.449241 -0.042496
v -0.000000 0.012671 -0.061742
v -0.000000 0.460105 -0.061742
v -0.000000 0.012671 0.058459
v -0.000000 0.460105 0.058459
v -0.063343 0.012671 0.000000
v -0.063343 0.460105 0.000000
v 0.060751 0.012671 0.000000
v 0.060751 0.460105 0.000000
v -0.000000 0.554606 0.000000
v -0.000000 0.012671 0.000000
vn -0.9579 0.2865 0.0178
vn 0.0542 -0.6332 0.7721
vn 0.1968 -0.9801 -0.0270
vn 0.5628 0.7623 0.3195
vn -0.2073 -0.9783 -0.0012
vn 0.6198 -0.5991 0.5069
vn -0.6622 0.5833 -0.4705
vn -0.3682 -0.8976 -0.2423
vn -0.0076 -0.8041 -0.5945
vn 0.6787 0.3161 -0.6630
vn -0.6383 -0.3478 0.6868
vn 0.4126 0.0000 -0.9109
vn 0.9188 0.0000 0.3947
vn -0.3517 0.0000 0.9361
vn 0.0000 -1.0000 0.0000
vn -0.4134 0.4790 0.7744
vn -0.4126 0.0000 -0.9109
vn 0.7525 0.4837 -0.4469
vn -0.8978 0.0000 0.4404
vn 0.2996 -0.9263 -0.2283
vn 0.5165 0.6879 0.5100
vn 0.0102 -0.9985 0.0543
vn -0.3027 -0.8255 -0.4763
vn 0.2288 -0.8520 -0.4709
vn -0.7279 0.4879 0.4818
vn 0.4606 0.4855 -0.7431
vn -0.9002 0.2400 -0.3633
vn 0.4335 0.3478 -0.8314
vn 0.9203 -0.2224 0.3217
vn -0.3721 -0.3632 0.8542
vn 0.2140 -0.9674 0.1353
vn -0.5142 0.1162 0.8498
vn -0.7550 -0.6231 -0.2041
vn 0.3532 -0.4146 0.8386
vn -0.4159 0.4078 -0.8128
vn -0.6559 -0.3133 -0.6868
vn 0.8088 0.5794 -0.1004
vn -0.5279 0.8113 -0.2512
vn 0.2040 -0.2350 -0.9504
vn -0.8277 -0.3532 -0.4360
vn 0.4644 -0.1037 -0.8795
vn -0.3733 -0.0122 0.9276
vn 0.6378 0.5803 -0.5065
vn -0.8978 0.0000 -0.4404
vn 0.3588 0.8557 0.3729
vn 0.3517 0.0000 0.9361
vn -0.4606 0.4855 -0.7431
vn 0.9188 0.0000 -0.3947
vn 0.6352 -0.7216 -0.2753
vn -0.3656 0.3162 0.8754
vn -0.4015 -0.9035 0.1497
vn -0.3204 -0.1975 -0.9265
vn 0.6536 0.7047 -0.2760
vn -0.6806 0.7272 -0.0899
vn 0.5624 -0.4143 -0.7155
vn -0.8356 -0.3517 -0.4220
vn 0.4501 -0.1071 -0.8865
vn -0.3591 -0.0064 0.9333
vn 0.3702 0.4661 -0.8035
vn 0.6333 0.4071 0.6581
vn -0.7279 0.4879 -0.4818
vn 0.0056 0.6227 -0.7824
vn 0.9650 -0.2554 -0.0595
vn -0.0871 0.6528 0.7525
vn 0.2246 0.9637 -0.1444
vn -0.3455 0.9380 0.0268
vn -0.2416 0.7035 0.6683
vn 0.1005 0.9804 -0.1694
vn -0.3933 0.9126 0.1115
vn 0.4865 0.2736 0.8297
vn 0.9230 0.0969 -0.3723
vn -0.9035 -0.1169 0.4123
vn 0.6030 0.0387 0.7968
vn 0.8846 0.2150 0.4139
vn 0.2390 -0.9580 0.1586
vn -0.5566 0.4741 0.6822
vn 0.1234 0.9634 0.2379
vn 0.3070 0.1591 0.9383
vn -0.3336 -0.3046 -0.8921
vn -0.5230 0.2409 -0.8176
vn 0.9265 0.0972 -0.3635
vn -0.8745 -0.2217 0.4314
vn 0.8913 0.2155 0.3989
vn -0.8481 0.3618 0.3872
vn 0.4816 0.6436 0.5948
vn 0.2914 0.1574 0.9435
vn -0.3193 -0.3008 -0.8986
vn -0.7966 0.2171 -0.5641
vn 0.9316 0.1022 -0.3488
vn -0.8809 -0.2245 0.4167
usemtl Material.001
s off
f 13//1 4//1 3//1
f 11//2 2//2 1//2
f 18//3 5//3 11//3
f 17//4 6//4 16//4
f 18//5 1//5 13//5
f 6//6 11//6 5//6
f 3//7 10//7 9//7
f 3//8 18//8 13//8
f 7//9 18//9 9//9
f 8//10 15//10 7//10
f 1//11 14//11 13//11
f 63//12 62//12 61//12
f 69//13 60//13 59//13
f 65//14 56//14 55//14
f 72//15 59//15 65//15
f 71//16 56//16 66//16
f 72//15 55//15 67//15
f 58//17 63//17 57//17
f 57//15 72//15 67//15
f 62//18 71//18 70//18
f 61//15 72//15 63//15
f 56//19 67//19 55//19
f 13//1 14//1 4//1
f 11//2 12//2 2//2
f 18//20 15//20 5//20
f 17//21 12//21 6//21
f 18//22 11//22 1//22
f 6//6 12//6 11//6
f 3//7 4//7 10//7
f 3//23 9//23 18//23
f 7//24 15//24 18//24
f 8//10 16//10 15//10
f 1//11 2//11 14//11
f 63//12 64//12 62//12
f 69//13 70//13 60//13
f 65//14 66//14 56//14
f 72//15 69//15 59//15
f 71//25 68//25 56//25
f 72//15 65//15 55//15
f 58//17 64//17 63//17
f 57//15 63//15 72//15
f 62//26 64//26 71//26
f 61//15 69//15 72//15
f 56//19 68//19 67//19
usemtl Material.002
f 32//27 21//27 31//27
f 27//28 26//28 25//28
f 33//29 24//29 23//29
f 29//30 20//30 19//30
f 36//31 23//31 29//31
f 32//32 30//32 35//32
f 36//33 19//33 31//33
f 24//34 29//34 23//34
f 22//35 27//35 21//35
f 21//36 36//36 31//36
f 26//37 35//37 34//37
f 22//38 35//38 28//38
f 25//39 36//39 27//39
f 49//40 40//40 39//40
f 45//41 44//41 43//41
f 47//42 38//42 37//42
f 44//43 53//43 52//43
f 67//44 58//44 57//44
f 70//45 66//45 60//45
f 60//46 65//46 59//46
f 58//47 71//47 64//47
f 62//48 69//48 61//48
f 32//27 22//27 21//27
f 27//28 28//28 26//28
f 33//29 34//29 24//29
f 29//30 30//30 20//30
f 36//49 33//49 23//49
f 32//50 20//50 30//50
f 36//51 29//51 19//51
f 24//34 30//34 29//34
f 22//35 28//35 27//35
f 21//52 27//52 36//52
f 26//53 28//53 35//53
f 22//54 32//54 35//54
f 25//55 33//55 36//55
f 49//56 50//56 40//56
f 45//57 46//57 44//57
f 47//58 48//58 38//58
f 44//59 46//59 53//59
f 67//44 68//44 58//44
f 70//60 71//60 66//60
f 60//46 66//46 65//46
f 58//61 68//61 71//61
f 62//48 70//48 69//48
usemtl Material.004
f 10//62 7//62 9//62
f 16//63 5//63 15//63
f 17//64 2//64 12//64
f 8//65 17//65 16//65
f 4//66 17//66 10//66
f 10//62 8//62 7//62
f 16//63 6//63 5//63
f 17//67 14//67 2//67
f 8//68 10//68 17//68
f 4//69 14//69 17//69
usemtl Material.003
f 34//70 30//70 24//70
f 25//71 34//71 33//71
f 20//72 31//72 19//72
f 34//73 35//73 30//73
f 25//71 26//71 34//71
f 20//72 32//72 31//72
usemtl Material.005
f 51//74 42//74 41//74
f 54//75 41//75 47//75
f 53//76 38//76 48//76
f 52//77 48//77 42//77
f 54//75 37//75 49//75
f 42//78 47//78 41//78
f 40//79 45//79 39//79
f 39//75 54//75 49//75
f 40//80 53//80 46//80
f 43//75 54//75 45//75
f 44//81 51//81 43//81
f 38//82 49//82 37//82
f 51//83 52//83 42//83
f 54//75 51//75 41//75
f 53//84 50//84 38//84
f 52//85 53//85 48//85
f 54//75 47//75 37//75
f 42//86 48//86 47//86
f 40//87 46//87 45//87
f 39//75 45//75 54//75
f 40//88 50//88 53//88
f 43//75 51//75 54//75
f 44//89 52//89 51//89
f 38//90 50//90 49//90
