# Blender v2.78 (sub 0) OBJ File: 'vedette.blend'
# www.blender.org
mtllib vedette.mtl
o Icosphere
v 0.281421 0.249440 0.065144
v 0.281421 0.484157 0.099905
v 0.281421 0.249440 -0.095146
v 0.281421 0.484157 -0.136314
v 0.414669 0.249440 0.065352
v 0.414669 0.484157 0.098535
v 0.414669 0.249440 -0.088917
v 0.414669 0.484157 -0.132365
v 0.351964 -0.150522 0.047257
v 0.703632 -0.033694 0.152382
v 0.078742 0.041827 0.169884
v -0.616776 0.090835 -0.009993
v 0.068537 0.042727 -0.107916
v 0.701923 -0.033484 -0.048889
v 0.547988 0.244169 0.197157
v -0.525833 0.299199 0.152506
v -0.527457 0.299081 -0.170219
v 0.540323 0.245108 -0.173446
v 0.790392 0.063887 0.026485
v 0.426034 0.419050 -0.010294
v 0.243955 -0.094074 0.107005
v 0.586674 -0.136082 0.117540
v 0.505194 -0.032088 0.190111
v 0.694285 -0.055265 0.056992
v 0.586674 -0.136082 0.018987
v -0.057358 -0.120092 0.020585
v -0.483523 0.097272 0.146089
v 0.240781 -0.093685 -0.069522
v -0.485855 0.095077 -0.155053
v 0.498071 -0.031215 -0.072541
v 0.851671 0.077553 0.090317
v 0.851671 0.077553 -0.066303
v 0.361859 0.137591 0.212598
v 0.707538 0.095220 0.214181
v -0.857515 0.279796 0.069925
v -0.425282 0.232075 0.239539
v -0.431379 0.231799 -0.247404
v -0.857435 0.280450 -0.112823
v 0.701302 0.095984 -0.140001
v 0.350816 0.138944 -0.199728
v 0.787133 0.237573 0.141735
v 0.144391 0.316356 0.208548
v -0.517323 0.300854 -0.008096
v 0.135216 0.317480 -0.177324
v 0.784892 0.237847 -0.123271
v 0.504545 0.366217 0.117244
v 0.700017 0.191689 0.022749
v 0.062872 0.369557 0.077543
v 0.062872 0.369557 -0.066620
v 0.501777 0.366557 -0.128457
v -0.125726 0.351280 -0.019873
v -0.125726 0.419183 -0.027551
v -0.050133 0.351280 -0.020654
v -0.050133 0.419183 -0.030768
v -0.125726 0.351280 0.008990
v -0.125726 0.419183 0.005722
v -0.050133 0.351280 0.010804
v -0.050133 0.419183 0.006003
v -0.125726 0.401979 0.006236
v -0.125726 0.395294 -0.004645
v -0.125726 0.372780 -0.006139
v -0.125726 0.368484 0.007893
v -0.606143 0.405474 0.005052
v -0.606143 0.398789 -0.007746
v -0.606143 0.372780 -0.011707
v -0.606143 0.368484 0.004863
v -0.125726 0.385232 -0.032094
v -0.050133 0.385232 -0.033492
v -0.050133 0.385232 0.008105
v -0.125726 0.385232 -0.010265
v -0.606143 0.385232 -0.015259
v -0.582298 0.372780 -0.011824
v -0.582298 0.398789 -0.007852
v -0.582298 0.368484 0.004777
v -0.582298 0.405474 0.004969
v -0.582298 0.385232 -0.015381
v -0.606143 0.411742 0.005090
v -0.606143 0.405056 -0.016004
v -0.606143 0.385750 -0.023539
v -0.606143 0.363469 -0.019860
v -0.606143 0.359173 0.004828
v -0.582298 0.363469 -0.019995
v -0.582298 0.359173 0.004741
v -0.582298 0.385750 -0.023677
v -0.582298 0.405056 -0.016124
v -0.582298 0.411742 0.005008
v -0.122527 0.405474 0.006132
v -0.122527 0.398789 -0.004806
v -0.122527 0.385232 -0.010159
v -0.122527 0.372780 -0.006028
v -0.122527 0.368484 0.007962
v -0.122527 0.385232 0.007020
v -0.074230 0.317261 0.115788
v -0.080036 0.425124 0.210206
v 0.260852 0.317261 0.097089
v 0.255244 0.441082 0.201408
v -0.111921 0.381129 0.128168
v 0.255046 0.381129 0.109346
v 0.022200 0.534718 0.052217
v 0.150015 0.536151 0.058045
v 0.167668 0.456410 0.124616
v 0.006514 0.456410 0.128499
v 0.124618 0.502217 0.104169
v 0.048029 0.501358 0.104568
v 0.065100 0.548664 0.017030
v 0.106720 0.549130 0.016982
v 0.243720 0.465620 0.076039
v 0.198734 0.506263 0.046926
v -0.125726 0.351280 0.025128
v -0.125726 0.419183 0.024356
v -0.050133 0.351280 0.030516
v -0.050133 0.419183 0.029094
v -0.125726 0.351280 -0.003945
v -0.125726 0.419183 -0.009202
v -0.050133 0.351280 -0.001222
v -0.050133 0.419183 -0.008073
v -0.125726 0.401979 -0.008161
v -0.125726 0.395294 0.003443
v -0.125726 0.372780 0.007886
v -0.125726 0.368484 -0.005521
v -0.606143 0.405474 -0.011190
v -0.606143 0.398789 0.001516
v -0.606143 0.372780 0.005176
v -0.606143 0.368484 -0.011437
v -0.125726 0.385232 0.032597
v -0.050133 0.385232 0.037245
v -0.050133 0.385232 -0.004911
v -0.125726 0.385232 0.010337
v -0.606143 0.385232 0.008865
v -0.582298 0.372780 0.005091
v -0.582298 0.398789 0.001426
v -0.582298 0.368484 -0.011554
v -0.582298 0.405474 -0.011301
v -0.582298 0.385232 0.008787
v -0.606143 0.411742 -0.011139
v -0.606143 0.405056 0.009863
v -0.606143 0.385750 0.017159
v -0.606143 0.363469 0.013247
v -0.606143 0.359173 -0.011484
v -0.582298 0.363469 0.013177
v -0.582298 0.359173 -0.011603
v -0.582298 0.385750 0.017097
v -0.582298 0.405056 0.009788
v -0.582298 0.411742 -0.011250
v -0.122527 0.405474 -0.008326
v -0.122527 0.398789 0.003316
v -0.122527 0.385232 0.010374
v -0.122527 0.372780 0.007949
v -0.122527 0.368484 -0.005405
v -0.122527 0.385232 -0.006831
v -0.074230 0.317261 -0.095872
v -0.080036 0.425124 -0.204447
v -0.074230 0.317261 0.007483
v -0.080036 0.425124 -0.001656
v 0.260852 0.317261 -0.111588
v 0.255244 0.441082 -0.220966
v 0.260852 0.317261 -0.009661
v 0.255046 0.425124 -0.010419
v -0.111921 0.381129 -0.120814
v -0.111921 0.381129 0.000615
v 0.255046 0.381129 -0.011217
v 0.255046 0.381129 -0.126481
v 0.022200 0.534718 -0.058064
v 0.022002 0.518759 -0.003241
v 0.150015 0.536151 -0.003278
v 0.150015 0.536151 -0.064402
v 0.167668 0.456410 -0.132067
v 0.006514 0.456410 -0.128921
v 0.124618 0.502217 -0.110843
v 0.048029 0.501358 -0.109881
v 0.065100 0.548664 -0.023056
v 0.065100 0.548664 -0.003026
v 0.106720 0.549130 -0.003110
v 0.106720 0.549130 -0.023176
v 0.243720 0.465620 -0.007030
v 0.243720 0.465620 -0.091314
v 0.198734 0.506263 -0.003816
v 0.198734 0.506263 -0.055602
vn -1.0000 0.0000 0.0000
vn 0.0460 -0.1726 -0.9839
vn 1.0000 -0.0000 0.0000
vn -0.0016 -0.1400 0.9902
vn 0.0000 -1.0000 0.0000
vn 0.0000 1.0000 0.0000
vn -0.1177 -0.8192 0.5613
vn 0.6358 -0.7639 0.1104
vn -0.0980 -0.8057 0.5841
vn -0.0415 -0.9134 -0.4050
vn 0.0023 -0.8983 -0.4394
vn 0.6267 -0.7710 0.1129
vn -0.0806 -0.1975 0.9770
vn -0.4652 -0.7742 0.4291
vn 0.0169 -0.5643 -0.8254
vn 0.0882 -0.5730 -0.8148
vn 0.5802 -0.3663 0.7274
vn -0.0132 -0.3745 0.9271
vn -0.6181 -0.7861 -0.0031
vn -0.0297 -0.6431 -0.7652
vn 0.3140 -0.5454 -0.7771
vn 0.1983 0.5853 0.7862
vn -0.0573 0.9121 0.4060
vn -0.1179 0.9930 -0.0035
vn 0.0745 0.3671 -0.9272
vn 0.6751 0.4934 0.5484
vn 0.6328 0.7717 0.0628
vn 0.3594 0.8093 0.4647
vn 0.1959 0.3947 -0.8977
vn -0.0551 0.8989 -0.4347
vn -0.0581 0.8882 -0.4558
vn -0.0296 0.8969 -0.4413
vn -0.1350 0.9908 0.0000
vn -0.1176 0.9931 0.0000
vn -0.1182 0.9930 0.0040
vn -0.0288 0.9171 0.3976
vn -0.0282 0.9199 0.3911
vn 0.1256 0.5743 0.8089
vn 0.6422 0.7624 -0.0795
vn 0.3824 0.7329 -0.5626
vn 0.6392 0.4335 -0.6352
vn 0.6980 0.4797 0.5316
vn 0.4214 -0.1427 -0.8956
vn 0.2009 -0.0028 -0.9796
vn 0.0401 0.1720 -0.9843
vn 0.0859 0.2255 -0.9704
vn -0.0277 0.7362 -0.6762
vn -0.0576 0.9983 -0.0073
vn -0.0610 0.9981 0.0035
vn -0.0602 0.9982 0.0071
vn -0.0744 0.7462 0.6615
vn 0.0431 0.0750 0.9963
vn 0.0411 0.0726 0.9965
vn 0.2211 0.3413 0.9136
vn 0.6531 0.0201 0.7570
vn 0.5927 0.4530 -0.6660
vn 0.1624 -0.0458 -0.9857
vn 0.0730 -0.5558 -0.8281
vn -0.0426 -0.6215 -0.7822
vn -0.1674 0.6304 -0.7580
vn -0.3157 -0.4415 -0.8399
vn -0.4426 -0.7909 -0.4226
vn -0.2220 0.6312 0.7432
vn -0.3717 -0.4151 0.8304
vn -0.0888 -0.5413 0.8361
vn 0.0108 0.1249 0.9921
vn -0.0230 -0.1504 0.9884
vn 0.1652 -0.4304 0.8874
vn -0.2177 0.9760 0.0000
vn 0.6449 -0.7642 0.0000
vn 0.5818 -0.8039 -0.1234
vn 0.0842 -0.6139 -0.7849
vn 0.1328 -0.5857 -0.7996
vn 0.0422 -0.2209 -0.9744
vn 0.0650 -0.1935 -0.9789
vn -0.1238 -0.7637 -0.6335
vn -0.3198 -0.8937 -0.3147
vn -0.3485 -0.8759 0.3337
vn -0.1436 -0.6908 0.7087
vn -0.0860 -0.5025 0.8603
vn 0.6221 -0.7745 -0.1144
vn 0.6005 -0.7996 0.0000
vn 0.0614 -0.9981 0.0000
vn -0.1338 -0.5455 0.8274
vn -0.1000 -0.6209 0.7775
vn 0.1604 -0.4773 0.8640
vn -0.0184 0.0800 -0.9966
vn -0.0101 0.2743 0.9616
vn -0.0053 -0.4847 0.8747
vn -0.0097 -0.3387 -0.9409
vn 0.0099 0.4855 -0.8742
vn 0.0081 0.8867 -0.4623
vn 0.0036 -0.9562 -0.2927
vn 0.0106 -0.3145 -0.9492
vn -0.0057 -0.1630 -0.9866
vn -0.0010 -0.9853 -0.1711
vn -0.0010 0.9534 -0.3016
vn -0.0047 0.3643 -0.9313
vn -0.0029 0.9680 0.2509
vn -0.0010 -0.8863 0.4630
vn -0.8097 0.5868 0.0000
vn 0.0239 -0.8849 0.4652
vn 0.5229 0.8524 0.0000
vn 0.0548 -0.1834 0.9815
vn 0.9959 0.0905 0.0000
vn -0.8612 -0.5082 0.0000
vn 0.2872 0.9579 0.0000
vn -0.6635 0.7196 -0.2047
vn -0.5346 0.4687 0.7032
vn -0.0007 0.4705 0.8824
vn 0.0088 0.9307 0.3657
vn -0.0060 0.8070 0.5905
vn -0.3805 0.6833 0.6232
vn -0.0112 0.9999 0.0000
vn -0.5701 0.8216 0.0000
vn -0.0261 0.9398 0.3407
vn 0.6704 0.7420 0.0000
vn 0.9477 0.3181 -0.0248
vn 0.5474 0.7944 0.2632
vn -0.0608 0.2354 0.9700
vn 0.0030 0.2840 -0.9588
vn 0.0033 -0.4765 -0.8791
vn -0.0694 -0.2143 0.9743
vn -0.0028 0.5652 0.8249
vn 0.0044 0.8665 0.4992
vn -0.0019 -0.9523 0.3051
vn -0.0033 -0.1931 0.9812
vn 0.0026 -0.1733 0.9849
vn 0.0005 -0.9853 0.1708
vn 0.0014 0.9530 0.3029
vn 0.0029 0.3540 0.9352
vn 0.0014 0.9682 -0.2503
vn 0.0028 -0.8850 -0.4656
vn 0.0322 0.0282 0.9991
vn 0.0138 -0.8443 -0.5357
vn -0.0456 -0.2308 -0.9719
vn 0.0320 0.1255 0.9916
vn -0.7312 0.6821 0.0000
vn -0.6032 0.4342 -0.6691
vn 0.0261 -0.0116 0.9996
vn -0.0178 0.4065 -0.9135
vn -0.0574 0.9728 -0.2242
vn -0.0368 0.8318 -0.5539
vn 0.4195 0.5614 -0.7133
vn -0.4744 0.8457 0.2445
vn -0.0274 0.9398 -0.3408
vn 0.0014 -0.0083 1.0000
vn 0.9488 0.3148 0.0248
vn 0.5795 0.8086 -0.1015
vn -0.0670 -0.1270 0.9896
vn -0.0421 0.1325 -0.9903
vn -0.0111 0.3149 0.9491
vn -0.0098 -0.3672 0.9301
vn -0.0173 -0.3536 -0.9352
vn 0.0098 0.4876 -0.8730
vn 0.0102 0.8520 -0.5234
vn 0.0017 -0.9681 -0.2505
vn 0.0120 -0.2746 -0.9615
vn -0.0056 -0.1629 -0.9866
vn -0.0006 -0.9852 -0.1714
vn -0.0015 0.9533 -0.3021
vn -0.0054 0.3636 -0.9315
vn -0.0019 0.9560 0.2935
vn -0.0032 -0.8532 0.5215
vn 1.0000 -0.0021 -0.0008
vn 0.0541 -0.8368 0.5448
vn 0.0506 -0.1612 0.9856
vn 0.3643 0.6430 0.6737
vn 0.0218 0.4245 0.9051
vn -0.0399 0.9702 0.2391
vn -0.0344 0.8351 0.5491
vn 0.4379 0.5808 0.6862
vn -0.4737 0.8468 -0.2420
vn -0.0103 0.9503 0.3112
vn 0.9630 0.2693 0.0000
vn 0.5854 0.8041 0.1036
vn -0.0597 0.2330 0.9706
vn 0.0056 0.1912 -0.9815
vn 0.0028 -0.4618 -0.8870
vn -0.0602 -0.1941 0.9791
vn -0.0002 0.4772 0.8788
vn 0.0036 0.8853 0.4650
vn -0.0033 -0.9683 0.2499
vn -0.0059 -0.2846 0.9586
vn 0.0029 -0.1729 0.9849
vn 0.0009 -0.9852 0.1711
vn 0.0009 0.9529 0.3033
vn 0.0024 0.3535 0.9354
vn 0.0038 0.9520 -0.3062
vn 0.0019 -0.8672 -0.4980
vn 0.0261 -0.0181 0.9995
vn 1.0000 -0.0021 0.0008
vn -0.0072 -0.8839 -0.4677
vn -0.0143 -0.3711 -0.9285
vn 0.0511 0.0290 0.9983
vn -0.6596 0.7223 0.2079
vn 0.3596 0.6487 -0.6707
vn 0.0080 -0.0566 0.9984
vn -0.0160 0.4025 -0.9153
vn -0.0073 0.9268 -0.3755
vn -0.0164 0.8116 -0.5840
vn -0.4191 0.6539 -0.6299
vn -0.0115 0.9502 -0.3113
vn 0.0021 -0.0103 0.9999
vn 0.5388 0.8075 -0.2403
vn -0.0056 -0.0849 0.9964
vn 0.0291 -0.1819 -0.9829
vn 0.0102 -0.1465 0.9892
usemtl Material
s off
f 2//1 3//1 1//1
f 4//2 7//2 3//2
f 8//3 5//3 7//3
f 6//4 1//4 5//4
f 7//5 1//5 3//5
f 4//6 6//6 8//6
f 9//7 22//7 21//7
f 10//8 22//8 24//8
f 9//9 21//9 26//9
f 9//10 26//10 28//10
f 9//11 28//11 25//11
f 10//12 24//12 31//12
f 11//13 23//13 33//13
f 12//14 27//14 35//14
f 13//15 29//15 37//15
f 14//16 30//16 39//16
f 10//17 31//17 34//17
f 11//18 33//18 36//18
f 12//19 35//19 38//19
f 13//20 37//20 40//20
f 14//21 39//21 32//21
f 15//22 41//22 46//22
f 16//23 42//23 48//23
f 17//24 43//24 49//24
f 18//25 44//25 50//25
f 19//26 45//26 47//26
f 47//27 50//27 20//27
f 47//28 45//28 50//28
f 45//29 18//29 50//29
f 50//30 49//30 20//30
f 50//31 44//31 49//31
f 44//32 17//32 49//32
f 49//33 48//33 20//33
f 49//34 43//34 48//34
f 43//35 16//35 48//35
f 48//36 46//36 20//36
f 48//37 42//37 46//37
f 42//38 15//38 46//38
f 46//39 47//39 20//39
f 46//40 41//40 47//40
f 41//41 19//41 47//41
f 32//42 45//42 19//42
f 32//43 39//43 45//43
f 39//44 18//44 45//44
f 40//45 44//45 18//45
f 40//46 37//46 44//46
f 37//47 17//47 44//47
f 38//48 43//48 17//48
f 38//49 35//49 43//49
f 35//50 16//50 43//50
f 36//51 42//51 16//51
f 36//52 33//52 42//52
f 33//53 15//53 42//53
f 34//54 41//54 15//54
f 34//55 31//55 41//55
f 31//56 19//56 41//56
f 39//57 40//57 18//57
f 39//58 30//58 40//58
f 30//59 13//59 40//59
f 37//60 38//60 17//60
f 37//61 29//61 38//61
f 29//62 12//62 38//62
f 35//63 36//63 16//63
f 35//64 27//64 36//64
f 27//65 11//65 36//65
f 33//66 34//66 15//66
f 33//67 23//67 34//67
f 23//68 10//68 34//68
f 31//69 32//69 19//69
f 31//70 24//70 32//70
f 24//71 14//71 32//71
f 25//72 30//72 14//72
f 25//73 28//73 30//73
f 28//74 13//74 30//74
f 28//75 29//75 13//75
f 28//76 26//76 29//76
f 26//77 12//77 29//77
f 26//78 27//78 12//78
f 26//79 21//79 27//79
f 21//80 11//80 27//80
f 24//81 25//81 14//81
f 24//82 22//82 25//82
f 22//83 9//83 25//83
f 21//84 23//84 11//84
f 21//85 22//85 23//85
f 22//86 10//86 23//86
f 67//1 61//1 70//1
f 67//87 54//87 68//87
f 52//6 58//6 54//6
f 51//5 57//5 55//5
f 54//3 69//3 68//3
f 65//1 81//1 66//1
f 55//1 61//1 51//1
f 56//1 60//1 59//1
f 65//88 89//88 71//88
f 71//1 78//1 79//1
f 73//3 86//3 75//3
f 71//89 88//89 64//89
f 65//1 79//1 80//1
f 53//3 69//3 57//3
f 67//90 53//90 51//90
f 52//1 70//1 60//1
f 60//91 76//91 73//91
f 59//92 73//92 75//92
f 62//93 72//93 61//93
f 61//94 76//94 70//94
f 82//95 79//95 84//95
f 83//96 80//96 82//96
f 85//97 77//97 86//97
f 84//98 78//98 85//98
f 72//3 83//3 82//3
f 72//3 84//3 76//3
f 64//1 77//1 78//1
f 76//3 85//3 73//3
f 92//1 88//1 89//1
f 92//1 90//1 91//1
f 66//99 90//99 65//99
f 64//100 87//100 63//100
f 97//101 154//101 160//101
f 158//3 98//3 161//3
f 98//102 94//102 97//102
f 157//5 93//5 153//5
f 165//103 108//103 177//103
f 98//104 93//104 95//104
f 161//105 95//105 157//105
f 97//106 153//106 93//106
f 165//107 106//107 100//107
f 154//108 99//108 164//108
f 100//109 101//109 96//109
f 102//110 103//110 104//110
f 94//111 101//111 102//111
f 100//112 104//112 103//112
f 99//113 102//113 104//113
f 172//114 106//114 173//114
f 164//115 105//115 172//115
f 100//116 105//116 99//116
f 175//117 108//117 107//117
f 158//118 107//118 96//118
f 100//119 107//119 108//119
f 125//1 119//1 109//1
f 125//120 112//120 110//120
f 116//6 110//6 112//6
f 109//5 115//5 111//5
f 127//3 112//3 126//3
f 139//1 123//1 124//1
f 119//1 113//1 109//1
f 114//1 118//1 110//1
f 147//121 123//121 129//121
f 129//1 136//1 122//1
f 144//3 131//3 133//3
f 146//122 129//122 122//122
f 123//1 137//1 129//1
f 111//3 127//3 126//3
f 111//123 125//123 109//123
f 110//1 128//1 125//1
f 118//124 134//124 128//124
f 117//125 131//125 118//125
f 130//126 120//126 119//126
f 134//127 119//127 128//127
f 137//128 140//128 142//128
f 138//129 141//129 140//129
f 135//130 143//130 144//130
f 136//131 142//131 143//131
f 130//3 141//3 132//3
f 142//3 130//3 134//3
f 122//1 135//1 121//1
f 143//3 134//3 131//3
f 150//1 146//1 145//1
f 148//1 150//1 149//1
f 148//132 124//132 123//132
f 145//133 122//133 121//133
f 159//101 154//101 152//101
f 161//134 154//134 160//134
f 162//3 158//3 161//3
f 162//135 152//135 156//135
f 151//5 157//5 153//5
f 165//103 178//103 166//103
f 151//136 162//136 155//136
f 155//105 161//105 157//105
f 153//137 161//137 160//137
f 153//106 159//106 151//106
f 174//107 165//107 166//107
f 154//138 163//138 152//138
f 167//139 166//139 156//139
f 158//140 164//140 154//140
f 168//141 169//141 167//141
f 152//142 167//142 156//142
f 166//143 170//143 163//143
f 163//144 168//144 152//144
f 174//114 172//114 173//114
f 164//145 171//145 163//145
f 171//146 166//146 163//146
f 173//147 164//147 165//147
f 178//117 175//117 176//117
f 176//148 158//148 156//148
f 166//149 176//149 156//149
f 158//150 177//150 165//150
f 67//1 51//1 61//1
f 67//151 52//151 54//151
f 52//6 56//6 58//6
f 51//5 53//5 57//5
f 54//3 58//3 69//3
f 65//1 80//1 81//1
f 55//1 62//1 61//1
f 56//1 52//1 60//1
f 65//152 90//152 89//152
f 71//1 64//1 78//1
f 73//3 85//3 86//3
f 71//153 89//153 88//153
f 65//1 71//1 79//1
f 53//3 68//3 69//3
f 67//154 68//154 53//154
f 52//1 67//1 70//1
f 60//155 70//155 76//155
f 59//156 60//156 73//156
f 62//157 74//157 72//157
f 61//158 72//158 76//158
f 82//159 80//159 79//159
f 83//160 81//160 80//160
f 85//161 78//161 77//161
f 84//162 79//162 78//162
f 72//3 74//3 83//3
f 72//3 82//3 84//3
f 64//1 63//1 77//1
f 76//3 84//3 85//3
f 92//1 87//1 88//1
f 92//1 89//1 90//1
f 66//163 91//163 90//163
f 64//164 88//164 87//164
f 97//101 94//101 154//101
f 158//165 96//165 98//165
f 98//166 96//166 94//166
f 157//5 95//5 93//5
f 165//103 100//103 108//103
f 98//167 97//167 93//167
f 161//105 98//105 95//105
f 97//106 160//106 153//106
f 165//107 173//107 106//107
f 154//138 94//138 99//138
f 100//168 103//168 101//168
f 102//169 101//169 103//169
f 94//170 96//170 101//170
f 100//171 99//171 104//171
f 99//172 94//172 102//172
f 172//114 105//114 106//114
f 164//173 99//173 105//173
f 100//174 106//174 105//174
f 175//117 177//117 108//117
f 158//175 175//175 107//175
f 100//176 96//176 107//176
f 125//1 128//1 119//1
f 125//177 126//177 112//177
f 116//6 114//6 110//6
f 109//5 113//5 115//5
f 127//3 116//3 112//3
f 139//1 138//1 123//1
f 119//1 120//1 113//1
f 114//1 117//1 118//1
f 147//178 148//178 123//178
f 129//1 137//1 136//1
f 144//3 143//3 131//3
f 146//179 147//179 129//179
f 123//1 138//1 137//1
f 111//3 115//3 127//3
f 111//180 126//180 125//180
f 110//1 118//1 128//1
f 118//181 131//181 134//181
f 117//182 133//182 131//182
f 130//183 132//183 120//183
f 134//184 130//184 119//184
f 137//185 138//185 140//185
f 138//186 139//186 141//186
f 135//187 136//187 143//187
f 136//188 137//188 142//188
f 130//3 140//3 141//3
f 142//3 140//3 130//3
f 122//1 136//1 135//1
f 143//3 142//3 134//3
f 150//1 147//1 146//1
f 148//1 147//1 150//1
f 148//189 149//189 124//189
f 145//190 146//190 122//190
f 159//101 160//101 154//101
f 161//191 158//191 154//191
f 162//192 156//192 158//192
f 162//193 159//193 152//193
f 151//5 155//5 157//5
f 165//103 177//103 178//103
f 151//194 159//194 162//194
f 155//105 162//105 161//105
f 153//195 157//195 161//195
f 153//106 160//106 159//106
f 174//107 173//107 165//107
f 154//196 164//196 163//196
f 167//197 169//197 166//197
f 158//198 165//198 164//198
f 168//199 170//199 169//199
f 152//200 168//200 167//200
f 166//201 169//201 170//201
f 163//202 170//202 168//202
f 174//114 171//114 172//114
f 164//115 172//115 171//115
f 171//203 174//203 166//203
f 173//204 172//204 164//204
f 178//117 177//117 175//117
f 176//175 175//175 158//175
f 166//205 178//205 176//205
f 158//206 175//206 177//206
f 2//1 4//1 3//1
f 4//207 8//207 7//207
f 8//3 6//3 5//3
f 6//208 2//208 1//208
f 7//5 5//5 1//5
f 4//6 2//6 6//6
