# Blender v2.78 (sub 0) OBJ File: 'water.blend'
# www.blender.org
mtllib water.mtl
o Circle.002
v 0.000927 0.029048 0.005488
v -0.979620 0.029048 0.009771
v -0.485637 0.029048 0.856808
v 0.494910 0.029048 0.852526
v 0.981475 0.029048 0.001205
v 0.487492 0.029048 -0.845833
v -0.493055 0.029048 -0.841550
v -0.955065 0.105172 0.020387
v 0.966091 0.140221 0.011169
v 0.482197 0.081325 -0.818568
v -0.478323 0.092638 -0.814373
v -0.582349 0.124904 0.658274
v -0.686120 0.132162 0.480525
v -0.787362 0.093837 0.307062
v -0.473413 0.134680 0.669372
v -0.320229 0.136717 0.567038
v -0.150368 0.078751 0.294864
v -0.027677 0.119758 0.045856
v -0.573593 0.102933 -0.061309
v -0.761563 0.099445 0.032525
v 0.382740 0.100000 0.845568
v 0.143583 0.132661 0.846598
v -0.044158 0.101420 0.847433
v -0.209041 0.129033 0.848177
v -0.470940 0.142355 0.849169
v 0.279461 0.102231 0.703814
v 0.240618 0.093219 0.433071
v 0.151853 0.077984 0.300058
v 0.059336 0.085523 0.107557
v 0.861863 0.095808 0.193397
v 0.771163 0.089312 0.352632
v 0.700372 0.070696 0.475714
v 0.595381 0.066155 0.659783
v 0.489058 0.117931 0.845332
v 0.757921 0.122807 0.016960
v 0.515848 0.076753 0.030200
v 0.298272 0.092618 0.066078
v 0.547078 0.086614 -0.706445
v 0.727472 0.090486 -0.398052
v 0.804793 0.123143 -0.265410
v 0.877465 0.143552 -0.140060
v 0.352925 0.087756 -0.527115
v 0.270363 0.097015 -0.447932
v 0.218734 0.095668 -0.324212
v 0.133562 0.108475 -0.020763
v -0.257310 0.115457 -0.815344
v -0.157981 0.140091 -0.816047
v 0.115514 0.101915 -0.817016
v 0.330303 0.051636 -0.817935
v -0.336487 0.109357 -0.599494
v -0.209493 0.075563 -0.353408
v -0.025523 0.125275 -0.213907
v -0.802540 0.096816 -0.247319
v -0.716978 0.115102 -0.397229
v -0.744017 0.087504 -0.155733
v -0.646842 0.106598 -0.134349
v -0.432799 0.109931 -0.260709
v -0.558195 0.128690 -0.324163
v -0.635789 0.087602 -0.538710
v -0.272272 0.108052 -0.160437
v -0.473596 0.131243 -0.461432
v -0.585373 0.095272 -0.626656
v -0.110449 0.140502 -0.080142
v -0.271868 0.073293 -0.290644
v -0.543333 0.087001 -0.701388
v -0.106262 0.157973 -0.728008
v -0.081883 0.130798 -0.614409
v -0.038308 0.113511 -0.368568
v 0.022056 0.123317 -0.646269
v 0.011087 0.108964 -0.362200
v 0.132659 0.084573 -0.604482
v 0.071161 0.140770 -0.247348
v 0.149685 0.078207 -0.387387
v 0.250130 0.070355 -0.591086
v 0.392772 0.046754 -0.733638
v 0.540289 0.099658 -0.561877
v 0.483812 0.110232 -0.448864
v 0.454079 0.081421 -0.330837
v 0.591136 0.077023 -0.273367
v 0.375349 0.059360 -0.160805
v 0.717066 0.091071 -0.204924
v 0.286974 0.085227 -0.101809
v 0.538385 0.095872 -0.171819
v 0.663589 0.092181 -0.082489
v 0.416986 0.074199 -0.028243
v 0.641112 0.120422 0.170321
v 0.610753 0.120742 0.328659
v 0.398795 0.106865 0.199565
v 0.431939 0.136499 0.383431
v 0.504113 0.142220 0.404047
v 0.524024 0.104316 0.578761
v 0.132267 0.086311 0.170469
v 0.234470 0.069757 0.218801
v 0.350515 0.108665 0.453737
v 0.458174 0.114293 0.730776
v 0.189939 0.110092 0.532812
v 0.057205 0.143186 0.490759
v 0.007937 0.120726 0.694109
v -0.020994 0.134301 0.602368
v -0.109310 0.106716 0.751168
v -0.012518 0.113803 0.401201
v -0.193850 0.095001 0.577188
v -0.070001 0.099155 0.214840
v -0.162042 0.083859 0.444036
v -0.260702 0.117295 0.671049
v -0.542608 0.141893 0.479050
v -0.399496 0.129243 0.463931
v -0.322532 0.075781 0.313346
v -0.591520 0.080081 0.311584
v -0.425749 0.076059 0.265560
v -0.658239 0.079176 0.117277
v -0.831434 0.085833 0.232338
v -0.300354 0.116022 -0.045150
v -0.339664 0.087871 0.090153
v -0.471333 0.064152 0.086282
v -0.879433 0.107023 0.149208
vn 0.0000 1.0000 0.0000
vn 0.1787 0.9454 0.2725
vn 0.1074 0.9899 0.0924
vn 0.0043 0.9989 0.0458
vn -0.0855 0.9726 0.2163
vn 0.0333 0.9976 -0.0602
vn 0.1092 0.9935 0.0312
vn -0.1755 0.9813 -0.0786
vn -0.0167 0.9936 0.1117
vn 0.0088 0.9991 0.0413
vn 0.0724 0.9862 0.1486
vn -0.1974 0.9801 0.0219
vn -0.1296 0.9867 0.0982
vn -0.0631 0.9536 0.2943
vn -0.0479 0.9989 0.0012
vn 0.0030 0.9819 -0.1891
vn 0.0475 0.9972 -0.0574
vn 0.1059 0.9909 0.0837
vn -0.2088 0.9717 -0.1106
vn -0.2367 0.9702 -0.0511
vn -0.1459 0.9839 -0.1035
vn 0.1696 0.9523 -0.2537
vn 0.2315 0.9712 0.0561
vn -0.0850 0.9840 -0.1567
vn -0.1071 0.9779 -0.1793
vn -0.1225 0.9588 -0.2563
vn 0.0665 0.9926 0.1020
vn 0.2227 0.9726 0.0670
vn -0.0198 0.9842 -0.1757
vn -0.1027 0.9947 -0.0095
vn -0.0726 0.9823 0.1724
vn -0.2286 0.9543 -0.1927
vn -0.1028 0.9947 -0.0096
vn -0.2382 0.9694 -0.0600
vn -0.2407 0.9690 -0.0554
vn -0.0670 0.9670 0.2457
vn 0.1321 0.9534 -0.2713
vn -0.2064 0.9728 0.1050
vn 0.0882 0.9946 0.0543
vn 0.1322 0.9701 0.2037
vn 0.2511 0.9678 0.0161
vn -0.1885 0.9803 -0.0590
vn 0.1021 0.9912 -0.0838
vn 0.0847 0.9950 0.0535
vn 0.3098 0.9489 0.0599
vn 0.3125 0.9485 0.0522
vn 0.2277 0.9718 0.0609
vn -0.2092 0.9650 -0.1578
vn 0.1459 0.9311 -0.3342
vn 0.2186 0.9757 0.0115
vn 0.1179 0.9928 0.0199
vn 0.1245 0.9914 -0.0396
vn 0.1262 0.9913 -0.0361
vn 0.1363 0.9903 -0.0262
vn -0.0994 0.9809 0.1672
vn 0.0956 0.9277 -0.3609
vn -0.1864 0.9802 -0.0671
vn -0.2242 0.9633 -0.1477
vn -0.0575 0.9829 -0.1749
vn -0.0399 0.9786 -0.2020
vn -0.1874 0.9628 0.1946
vn -0.2666 0.9576 0.1091
vn 0.0614 0.9974 0.0365
vn 0.2735 0.9611 -0.0388
vn -0.2326 0.9676 -0.0982
vn -0.1012 0.9719 -0.2125
vn 0.1216 0.9891 -0.0835
vn -0.0880 0.9868 -0.1363
vn 0.0906 0.9947 -0.0478
vn 0.0953 0.9953 -0.0170
vn -0.2624 0.9506 0.1659
vn 0.0278 0.9695 0.2436
vn -0.0090 0.9952 0.0976
vn 0.0641 0.9854 0.1575
vn -0.1062 0.9943 -0.0087
vn -0.3567 0.9340 -0.0220
vn 0.2596 0.9651 -0.0343
vn -0.2168 0.9759 0.0262
vn 0.0890 0.9866 -0.1369
vn 0.1164 0.9856 -0.1225
vn -0.0858 0.9952 -0.0465
vn -0.3229 0.9459 0.0332
vn 0.1935 0.9773 0.0860
vn 0.1749 0.9709 -0.1636
vn -0.2209 0.9745 -0.0397
vn -0.0484 0.9929 0.1089
vn -0.2631 0.9568 -0.1236
vn 0.1228 0.9911 -0.0519
vn 0.1132 0.9922 -0.0513
vn -0.0599 0.9965 0.0578
vn -0.2488 0.9666 -0.0617
vn -0.0812 0.9943 0.0695
vn -0.0764 0.9779 0.1946
vn -0.1977 0.9721 -0.1262
vn 0.0436 0.9894 -0.1384
vn 0.1008 0.9906 0.0922
vn 0.1002 0.9902 0.0975
vn -0.1844 0.9748 -0.1253
vn 0.1873 0.9817 0.0339
vn 0.1533 0.9602 0.2334
vn 0.0557 0.9890 -0.1374
vn -0.0819 0.9700 -0.2291
vn -0.0728 0.9866 -0.1459
vn 0.0925 0.9956 0.0157
vn 0.0014 0.9623 -0.2721
vn 0.2921 0.9455 0.1438
vn 0.2809 0.9440 0.1728
vn 0.2888 0.9388 0.1879
vn 0.0348 0.9927 0.1153
vn 0.0747 0.9812 0.1781
vn -0.2136 0.9753 0.0568
vn -0.2255 0.9730 -0.0497
vn -0.3831 0.9203 -0.0793
vn -0.1395 0.9653 0.2206
vn -0.1379 0.9646 0.2250
vn 0.3761 0.9209 0.1025
vn 0.2800 0.9541 -0.1058
vn -0.1088 0.9875 0.1137
vn 0.1402 0.9892 0.0424
vn -0.0078 0.9941 -0.1086
vn -0.1191 0.9873 -0.1047
vn 0.0054 0.9996 0.0273
vn -0.0538 0.9946 -0.0886
vn -0.1663 0.9860 0.0135
vn -0.0965 0.9722 -0.2135
vn 0.0483 0.9965 -0.0684
vn -0.0780 0.9943 0.0725
vn 0.1345 0.9875 -0.0825
vn 0.0250 0.9991 0.0328
vn 0.2696 0.9581 -0.0971
vn 0.0630 0.9902 0.1246
vn 0.0723 0.9873 -0.1416
vn -0.1635 0.9842 0.0684
vn 0.0459 0.9885 -0.1439
vn 0.2906 0.9403 -0.1773
vn 0.0666 0.9899 0.1255
vn -0.0406 0.9865 0.1588
vn -0.0692 0.9924 0.1014
vn 0.1647 0.9847 -0.0573
vn 0.0103 0.9477 -0.3189
vn -0.2641 0.9583 -0.1088
vn -0.2055 0.9727 -0.1078
vn -0.2277 0.9727 0.0452
vn 0.0748 0.9958 0.0527
vn 0.1400 0.9828 -0.1204
vn -0.2318 0.9632 -0.1360
vn 0.1394 0.9812 -0.1338
vn 0.1225 0.9873 -0.1012
vn 0.0503 0.9955 -0.0806
vn 0.2482 0.9522 0.1783
vn -0.2463 0.9692 -0.0002
vn -0.2098 0.9765 -0.0499
vn 0.3138 0.9495 -0.0045
vn 0.3136 0.9496 -0.0022
vn 0.0817 0.9957 -0.0436
vn 0.1679 0.9655 -0.1990
vn -0.0211 0.9991 -0.0359
vn -0.0498 0.9928 0.1086
vn -0.0851 0.9955 -0.0413
vn 0.0796 0.9871 0.1388
vn 0.0097 0.9994 0.0344
vn -0.0965 0.9927 0.0727
vn 0.0738 0.9890 -0.1285
vn -0.0666 0.9946 0.0795
vn 0.1607 0.9532 -0.2563
vn 0.0447 0.9329 -0.3574
vn -0.0673 0.9422 -0.3281
vn 0.0736 0.9639 -0.2559
vn 0.1288 0.9534 -0.2727
vn -0.0468 0.9664 -0.2529
vn 0.0707 0.9971 -0.0289
vn -0.0234 0.9954 -0.0928
vn -0.0989 0.9835 0.1514
vn -0.1315 0.9775 0.1652
vn -0.0113 0.9984 0.0550
vn -0.0232 0.9982 0.0558
vn -0.1767 0.9841 -0.0204
vn 0.0054 0.9977 -0.0676
vn 0.0751 0.9967 -0.0304
vn 0.1465 0.9755 0.1641
vn -0.1796 0.9722 0.1501
vn 0.1087 0.9774 0.1815
vn 0.0617 0.9851 0.1603
vn 0.1348 0.9883 0.0720
vn 0.0316 0.9990 -0.0329
usemtl Material.003
s off
f 1//1 2//1 3//1
f 1//1 3//1 4//1
f 1//1 4//1 5//1
f 1//1 5//1 6//1
f 1//1 6//1 7//1
f 1//1 7//1 2//1
f 18//2 29//2 45//2
f 18//3 45//3 63//3
f 19//4 56//4 20//4
f 18//5 63//5 113//5
f 20//6 55//6 8//6
f 55//7 53//7 8//7
f 20//8 56//8 55//8
f 55//9 54//9 53//9
f 19//10 57//10 56//10
f 57//11 58//11 56//11
f 56//12 58//12 55//12
f 55//13 58//13 54//13
f 115//14 113//14 19//14
f 113//15 57//15 19//15
f 58//16 59//16 54//16
f 113//17 60//17 57//17
f 57//18 61//18 58//18
f 58//19 61//19 59//19
f 61//20 62//20 59//20
f 63//21 60//21 113//21
f 60//22 64//22 57//22
f 57//23 64//23 61//23
f 61//24 65//24 62//24
f 63//25 52//25 60//25
f 52//26 64//26 60//26
f 51//27 50//27 64//27
f 64//28 50//28 61//28
f 61//29 50//29 65//29
f 65//30 46//30 11//30
f 51//31 67//31 50//31
f 64//32 68//32 51//32
f 65//33 50//33 46//33
f 50//34 66//34 46//34
f 66//35 47//35 46//35
f 50//36 67//36 66//36
f 66//37 48//37 47//37
f 51//38 68//38 67//38
f 68//39 69//39 67//39
f 67//40 69//40 66//40
f 66//41 69//41 48//41
f 64//42 52//42 68//42
f 52//43 70//43 68//43
f 68//44 70//44 69//44
f 70//45 71//45 69//45
f 69//46 71//46 48//46
f 71//47 49//47 48//47
f 52//48 72//48 70//48
f 72//49 73//49 70//49
f 70//50 73//50 71//50
f 73//51 74//51 71//51
f 74//52 75//52 71//52
f 71//53 75//53 49//53
f 63//54 45//54 52//54
f 45//55 72//55 52//55
f 72//56 44//56 73//56
f 44//57 43//57 73//57
f 73//58 43//58 74//58
f 43//59 42//59 74//59
f 42//60 75//60 74//60
f 75//61 10//61 49//61
f 75//62 38//62 10//62
f 44//63 78//63 43//63
f 72//64 82//64 44//64
f 75//65 76//65 38//65
f 75//66 42//66 76//66
f 76//67 39//67 38//67
f 42//68 77//68 76//68
f 77//69 39//69 76//69
f 43//70 78//70 42//70
f 42//71 78//71 77//71
f 77//72 78//72 39//72
f 78//73 79//73 39//73
f 44//74 80//74 78//74
f 79//75 81//75 39//75
f 81//76 40//76 39//76
f 82//77 80//77 44//77
f 80//78 83//78 78//78
f 78//79 83//79 79//79
f 83//80 84//80 79//80
f 79//81 84//81 81//81
f 81//82 41//82 40//82
f 72//83 45//83 82//83
f 82//84 85//84 80//84
f 80//85 85//85 83//85
f 85//86 84//86 83//86
f 84//87 41//87 81//87
f 45//88 37//88 82//88
f 82//89 37//89 85//89
f 85//90 36//90 84//90
f 84//91 35//91 41//91
f 35//92 9//92 41//92
f 35//93 30//93 9//93
f 36//94 86//94 84//94
f 37//95 88//95 85//95
f 35//96 86//96 30//96
f 86//97 31//97 30//97
f 84//98 86//98 35//98
f 86//99 87//99 31//99
f 87//100 32//100 31//100
f 85//101 88//101 36//101
f 36//102 88//102 86//102
f 88//103 89//103 86//103
f 86//104 89//104 87//104
f 89//105 90//105 87//105
f 87//106 90//106 32//106
f 90//107 91//107 32//107
f 91//108 33//108 32//108
f 45//109 92//109 37//109
f 92//110 93//110 37//110
f 37//111 93//111 88//111
f 93//112 94//112 88//112
f 88//113 94//113 89//113
f 89//114 94//114 90//114
f 94//115 91//115 90//115
f 91//116 95//116 33//116
f 95//117 34//117 33//117
f 45//118 29//118 92//118
f 92//119 28//119 93//119
f 28//120 27//120 93//120
f 93//121 27//121 94//121
f 94//122 26//122 91//122
f 91//123 26//123 95//123
f 95//124 21//124 34//124
f 27//125 96//125 94//125
f 29//126 103//126 92//126
f 95//127 26//127 21//127
f 26//128 22//128 21//128
f 94//129 96//129 26//129
f 96//130 97//130 26//130
f 97//131 98//131 26//131
f 26//132 98//132 22//132
f 98//133 23//133 22//133
f 27//134 28//134 96//134
f 28//135 97//135 96//135
f 97//136 99//136 98//136
f 99//137 100//137 98//137
f 98//138 100//138 23//138
f 100//139 24//139 23//139
f 28//140 101//140 97//140
f 97//141 101//141 99//141
f 101//142 102//142 99//142
f 99//143 102//143 100//143
f 92//144 103//144 28//144
f 28//145 103//145 101//145
f 101//146 104//146 102//146
f 102//147 105//147 100//147
f 100//148 105//148 24//148
f 105//149 25//149 24//149
f 29//150 18//150 103//150
f 103//151 17//151 101//151
f 17//152 104//152 101//152
f 104//153 16//153 102//153
f 102//154 16//154 105//154
f 105//155 15//155 25//155
f 104//156 107//156 16//156
f 17//157 108//157 104//157
f 18//158 113//158 103//158
f 15//159 12//159 25//159
f 105//160 16//160 15//160
f 16//161 106//161 15//161
f 15//162 106//162 12//162
f 107//163 106//163 16//163
f 106//164 13//164 12//164
f 104//165 108//165 107//165
f 107//166 109//166 106//166
f 106//167 109//167 13//167
f 109//168 14//168 13//168
f 108//169 110//169 107//169
f 107//170 110//170 109//170
f 109//171 111//171 14//171
f 111//172 112//172 14//172
f 103//173 113//173 17//173
f 113//174 114//174 17//174
f 17//175 114//175 108//175
f 108//176 114//176 110//176
f 114//177 115//177 110//177
f 110//178 115//178 109//178
f 115//179 111//179 109//179
f 111//180 116//180 112//180
f 113//181 115//181 114//181
f 115//182 19//182 111//182
f 19//183 20//183 111//183
f 111//184 20//184 116//184
f 20//185 8//185 116//185
